<?xml version="1.0" encoding="iso-8859-1"?>
<!-- Generator: Adobe Illustrator 19.0.0, SVG Export Plug-In . SVG Version: 6.00 Build 0)  -->
<svg version="1.1" id="Layer_1" xmlns="http://www.w3.org/2000/svg" xmlns:xlink="http://www.w3.org/1999/xlink" x="0px" y="0px"
	 viewBox="0 0 415.998 415.998" style="enable-background:new 0 0 415.998 415.998;" xml:space="preserve">
<g transform="translate(0 -1020.36)">
	<g shape-rendering="auto" image-rendering="auto" color-rendering="auto" color-interpolation="sRGB">
		<path style="fill:#484666;" d="M159.817,1140.377c-30.857,0-56.038,25.086-56.038,55.896c0.018,16.404,8.248,30.256,18.325,41.242
			c26.687,29.094,79.683,92.057,79.683,92.057c2.875,3.367,7.936,3.768,11.305,0.895c0.267-0.229,0.519-0.473,0.754-0.734
			c0,0,56.663-64.547,83.939-96.309c8.806-10.252,14.166-23.291,14.187-37.105c0-30.811-25.181-55.896-56.038-55.896
			c-16.498,0-29.942,9.373-39.369,18.082c-5.344,4.934-6.003,6.563-8.63,9.926c-2.639-3.363-3.271-4.99-8.63-9.926
			c-9.454-8.705-22.989-18.082-39.487-18.082V1140.377z"/>
		<path style="fill:#F47D95;" d="M159.817,1156.33c10.034,0,20.649,6.615,28.61,13.943c7.962,7.332,12.886,14.654,12.886,14.654
			c2.499,3.654,7.489,4.594,11.145,2.096c0.823-0.563,1.534-1.273,2.096-2.096c0,0,4.955-7.328,12.886-14.654
			c7.932-7.326,18.458-13.943,28.492-13.943c22.207,0,39.96,17.813,39.96,39.943c-0.015,9.707-3.75,19.098-10.286,26.705
			c-25.167,29.307-70.612,81.031-77.792,89.221c-7.049-8.369-48.66-57.934-73.89-85.438c-8.485-9.252-14.057-19.463-14.069-30.488
			C119.857,1174.144,137.61,1156.33,159.817,1156.33L159.817,1156.33z"/>
		<g>
			<path style="fill:#484666;" d="M207.755,1372.427c-4.421,0.047-7.967,3.668-7.92,8.088c0,0.021,0.001,0.043,0.001,0.064v23.746
				c0,4.438,3.598,8.033,8.037,8.033s8.037-3.596,8.037-8.033v-23.746c0.083-4.42-3.433-8.068-7.854-8.152
				C207.956,1372.425,207.855,1372.425,207.755,1372.427z"/>
			<path style="fill:#484666;" d="M207.755,1044.361c-4.421,0.047-7.967,3.668-7.92,8.088c0,0.021,0.001,0.041,0.001,0.063v23.746
				c0,4.438,3.598,8.033,8.037,8.033s8.037-3.596,8.037-8.033v-23.746c0.082-4.42-3.435-8.068-7.856-8.15
				C207.955,1044.359,207.855,1044.359,207.755,1044.361z"/>
			<path style="fill:#484666;" d="M39.688,1116.306c-4.421-0.051-8.048,3.488-8.099,7.908c-0.032,2.777,1.378,5.373,3.726,6.857
				l23.874,15.83c3.406,2.818,8.453,2.342,11.273-1.063s2.343-8.449-1.063-11.268c-0.417-0.344-0.868-0.646-1.345-0.9
				l-23.756-15.949c-1.353-0.938-2.963-1.434-4.609-1.424L39.688,1116.306z"/>
			<path style="fill:#484666;" d="M63.444,1308.398c-1.523,0.055-3,0.543-4.255,1.408l-23.874,15.949
				c-3.766,2.316-4.941,7.244-2.624,11.01c2.317,3.764,7.248,4.938,11.014,2.623c0.203-0.125,0.401-0.26,0.592-0.402l23.756-15.828
				c3.742-2.355,4.866-7.295,2.51-11.035c-1.531-2.432-4.248-3.855-7.119-3.732L63.444,1308.398z"/>
			<path style="fill:#484666;" d="M375.113,1116.306c-1.28,0.182-2.496,0.67-3.546,1.424l-23.756,15.83
				c-3.688,2.447-4.693,7.418-2.246,11.105c2.448,3.686,7.422,4.691,11.11,2.244l0,0l23.756-15.949
				c3.704-2.414,4.749-7.371,2.334-11.074c-1.663-2.551-4.629-3.936-7.653-3.576L375.113,1116.306z"/>
			<path style="fill:#484666;" d="M351.356,1308.398c-4.397,0.467-7.584,4.406-7.117,8.803c0.253,2.385,1.564,4.531,3.572,5.848
				l23.756,15.949c3.688,2.447,8.662,1.441,11.11-2.244c2.448-3.688,1.442-8.658-2.246-11.105l0,0l-23.756-15.83
				c-1.549-1.088-3.433-1.592-5.319-1.424L351.356,1308.398z"/>
			<path style="fill:#484666;" d="M22.905,1204.437c-4.072,0.469-7.133,3.934-7.091,8.031v31.779
				c-0.372,4.404,2.898,8.275,7.304,8.648c4.406,0.371,8.279-2.898,8.651-7.303c0.038-0.447,0.038-0.898,0-1.346v-31.779
				c0.041-4.42-3.51-8.035-7.931-8.076C23.526,1204.388,23.215,1204.404,22.905,1204.437z"/>
			<path style="fill:#484666;" d="M7.067,1220.384c-4.391,0.52-7.53,4.498-7.011,8.887c0.471,3.986,3.824,7.006,7.839,7.063h31.793
				c4.406,0.369,8.278-2.9,8.648-7.305c0.37-4.404-2.902-8.275-7.308-8.645c-0.446-0.037-0.894-0.037-1.339,0H7.895
				C7.619,1220.371,7.343,1220.371,7.067,1220.384z"/>
			<path style="fill:#484666;" d="M391.187,1204.32c-4.073,0.469-7.134,3.936-7.091,8.033v31.777
				c-0.372,4.404,2.898,8.275,7.304,8.648c4.406,0.371,8.279-2.898,8.651-7.303c0.038-0.447,0.038-0.898,0-1.346v-31.777
				c0.042-4.42-3.508-8.037-7.929-8.078C391.809,1204.271,391.497,1204.287,391.187,1204.32L391.187,1204.32z"/>
			<path style="fill:#484666;" d="M375.349,1220.267c-4.438,0.23-7.849,4.016-7.617,8.451c0.231,4.434,4.01,7.84,8.445,7.615h31.793
				c4.439-0.004,8.033-3.605,8.029-8.041c-0.004-4.43-3.596-8.021-8.029-8.025h-31.793
				C375.901,1220.254,375.625,1220.254,375.349,1220.267L375.349,1220.267z"/>
			<path style="fill:#484666;" d="M127.622,1340.295c-4.4,0.111-7.884,3.754-7.801,8.152v31.779
				c-0.372,4.404,2.898,8.275,7.304,8.648c4.406,0.371,8.279-2.898,8.651-7.303c0.038-0.447,0.038-0.898,0-1.346v-31.779
				c0.083-4.42-3.433-8.068-7.854-8.152C127.823,1340.293,127.722,1340.293,127.622,1340.295z"/>
			<path style="fill:#484666;" d="M111.075,1356.363c-4.39,0.527-7.522,4.512-6.995,8.898c0.477,3.975,3.818,6.986,7.822,7.049
				h31.793c4.406,0.377,8.282-2.889,8.658-7.293c0.376-4.404-2.89-8.277-7.296-8.654c-0.453-0.039-0.909-0.039-1.362,0h-31.793
				C111.627,1356.349,111.351,1356.349,111.075,1356.363z"/>
			<path style="fill:#484666;" d="M287.888,1340.414c-4.399,0.111-7.883,3.752-7.801,8.15v31.779
				c-0.372,4.404,2.898,8.275,7.304,8.648c4.406,0.371,8.279-2.898,8.651-7.303c0.038-0.447,0.038-0.898,0-1.346v-31.779
				c0.082-4.42-3.435-8.068-7.856-8.15C288.088,1340.412,287.988,1340.412,287.888,1340.414z"/>
			<path style="fill:#484666;" d="M271.341,1356.48c-4.391,0.52-7.53,4.498-7.011,8.887c0.471,3.986,3.824,7.006,7.839,7.063h31.793
				c4.406,0.369,8.278-2.9,8.648-7.305c0.37-4.404-2.902-8.275-7.309-8.645c-0.446-0.037-0.894-0.037-1.339,0h-31.793
				C271.893,1356.466,271.617,1356.466,271.341,1356.48z"/>
			<path style="fill:#484666;" d="M127.031,1068.341c-4.073,0.469-7.134,3.936-7.091,8.033v31.898
				c-0.372,4.404,2.898,8.275,7.304,8.646c4.406,0.373,8.279-2.896,8.651-7.301c0.038-0.447,0.038-0.898,0-1.346v-31.898
				c0.042-4.42-3.508-8.037-7.929-8.078C127.654,1068.293,127.341,1068.308,127.031,1068.341z"/>
			<path style="fill:#484666;" d="M111.193,1084.291c-4.437,0.268-7.817,4.078-7.55,8.514c0.264,4.379,3.991,7.74,8.377,7.553
				h31.793c4.439,0.039,8.068-3.525,8.107-7.963c0.039-4.438-3.528-8.064-7.967-8.104c-0.047,0-0.094,0-0.141,0h-31.793
				C111.745,1084.277,111.469,1084.277,111.193,1084.291L111.193,1084.291z"/>
			<path style="fill:#484666;" d="M287.297,1068.461c-4.073,0.469-7.134,3.936-7.091,8.033v31.779
				c-0.372,4.404,2.898,8.275,7.304,8.648c4.406,0.371,8.279-2.898,8.651-7.303c0.038-0.447,0.038-0.898,0-1.346v-31.779
				c0.042-4.42-3.508-8.037-7.929-8.078C287.92,1068.412,287.608,1068.427,287.297,1068.461z"/>
			<path style="fill:#484666;" d="M271.46,1084.41c-4.438,0.232-7.848,4.016-7.616,8.453c0.232,4.432,4.01,7.838,8.444,7.613h31.793
				c4.439-0.004,8.033-3.605,8.029-8.041c-0.004-4.43-3.596-8.021-8.029-8.025h-31.793
				C272.011,1084.396,271.735,1084.396,271.46,1084.41z"/>
		</g>
	</g>
	<g>
		<path style="fill:#484666;" d="M71.74,1276.416c0,4.42-3.585,8.004-8.008,8.004s-8.008-3.584-8.008-8.004
			c0-4.42,3.585-8.004,8.008-8.004S71.74,1271.996,71.74,1276.416z"/>
		<path style="fill:#484666;" d="M71.74,1180.365c0,4.42-3.585,8.004-8.008,8.004s-8.008-3.584-8.008-8.004
			c0-4.42,3.585-8.004,8.008-8.004S71.74,1175.945,71.74,1180.365z"/>
		<path style="fill:#484666;" d="M183.848,1092.32c0,4.42-3.585,8.004-8.008,8.004c-4.422,0-8.008-3.584-8.008-8.004
			c0-4.42,3.585-8.004,8.008-8.004C180.263,1084.316,183.848,1087.9,183.848,1092.32z"/>
		<path style="fill:#484666;" d="M247.91,1092.32c0,4.42-3.585,8.004-8.008,8.004s-8.008-3.584-8.008-8.004
			c0-4.42,3.585-8.004,8.008-8.004S247.91,1087.9,247.91,1092.32z"/>
		<path style="fill:#484666;" d="M183.848,1364.463c0,4.42-3.585,8.004-8.008,8.004c-4.422,0-8.008-3.584-8.008-8.004
			c0-4.42,3.585-8.004,8.008-8.004C180.263,1356.459,183.848,1360.043,183.848,1364.463z"/>
		<path style="fill:#484666;" d="M247.91,1364.463c0,4.42-3.585,8.004-8.008,8.004s-8.008-3.584-8.008-8.004
			c0-4.42,3.585-8.004,8.008-8.004S247.91,1360.043,247.91,1364.463z"/>
		<path style="fill:#484666;" d="M103.771,1124.338c0,4.42-3.585,8.004-8.008,8.004s-8.008-3.584-8.008-8.004
			c0-4.42,3.585-8.004,8.008-8.004S103.771,1119.918,103.771,1124.338z"/>
		<path style="fill:#484666;" d="M327.987,1124.338c0,4.42-3.585,8.004-8.008,8.004s-8.008-3.584-8.008-8.004
			c0-4.42,3.585-8.004,8.008-8.004S327.987,1119.918,327.987,1124.338z"/>
		<path style="fill:#484666;" d="M103.771,1332.332c0,4.42-3.585,8.004-8.008,8.004s-8.008-3.584-8.008-8.004
			c0-4.42,3.585-8.004,8.008-8.004S103.771,1327.912,103.771,1332.332z"/>
		<path style="fill:#484666;" d="M327.987,1332.332c0,4.42-3.585,8.004-8.008,8.004s-8.008-3.584-8.008-8.004
			c0-4.42,3.585-8.004,8.008-8.004S327.987,1327.912,327.987,1332.332z"/>
		<path style="fill:#484666;" d="M360.018,1276.416c0,4.42-3.585,8.004-8.008,8.004s-8.008-3.584-8.008-8.004
			c0-4.42,3.585-8.004,8.008-8.004S360.018,1271.996,360.018,1276.416z"/>
		<path style="fill:#484666;" d="M360.018,1180.365c0,4.42-3.585,8.004-8.008,8.004s-8.008-3.584-8.008-8.004
			c0-4.42,3.585-8.004,8.008-8.004S360.018,1175.945,360.018,1180.365z"/>
	</g>
	<path shape-rendering="auto" image-rendering="auto" color-rendering="auto" color-interpolation="sRGB" style="fill:#CF7083;" d="
		M159.828,1156.328c-1.651,0-3.221,0.271-4.816,0.465c9.069,1.168,18.32,6.902,25.454,13.471c7.962,7.332,12.884,14.66,12.884,14.66
		c2.358,3.449,6.972,4.512,10.601,2.438c-1.049-0.604-1.947-1.438-2.627-2.438c0,0-4.922-7.33-12.882-14.66
		c-7.962-7.33-18.581-13.939-28.613-13.939V1156.328z M255.924,1156.328c-1.041,0-2.105,0.336-3.159,0.465
		c19.892,2.367,35.181,18.98,35.181,39.477c-0.014,9.707-3.753,19.084-10.289,26.695c-23.863,27.787-63.349,72.738-73.769,84.613
		c0.736,0.881,3.481,4.08,3.94,4.625c7.179-8.188,52.604-59.934,77.771-89.238c6.536-7.609,10.274-16.986,10.289-26.695
		c0-22.129-17.758-39.945-39.965-39.945V1156.328z"/>
</g>
<g>
</g>
<g>
</g>
<g>
</g>
<g>
</g>
<g>
</g>
<g>
</g>
<g>
</g>
<g>
</g>
<g>
</g>
<g>
</g>
<g>
</g>
<g>
</g>
<g>
</g>
<g>
</g>
<g>
</g>
</svg>
